<?xml version="1.0" encoding="UTF-8"?>
<!DOCTYPE svg PUBLIC "-//W3C//DTD SVG 1.1//EN" "http://www.w3.org/Graphics/SVG/1.1/DTD/svg11.dtd">
<!-- Creator: CorelDRAW 2020 (64-Bit) -->
<svg xmlns="http://www.w3.org/2000/svg" xml:space="preserve" width="300px" height="300px" version="1.1" style="shape-rendering:geometricPrecision; text-rendering:geometricPrecision; image-rendering:optimizeQuality; fill-rule:evenodd; clip-rule:evenodd"
viewBox="0 0 300 300"
 xmlns:xlink="http://www.w3.org/1999/xlink"
 xmlns:xodm="http://www.corel.com/coreldraw/odm/2003">
 <defs>
  <style type="text/css">
   <![CDATA[
    .fil0 {fill:black}
    .fil4 {fill:url(#id0)}
    .fil3 {fill:url(#id1)}
    .fil1 {fill:url(#id2)}
    .fil2 {fill:url(#id3)}
   ]]>
  </style>
  <linearGradient id="id0" gradientUnits="userSpaceOnUse" x1="159.893" y1="253.8" x2="159.329" y2="46.2">
   <stop offset="0" style="stop-opacity:1; stop-color:#840ABE"/>
   <stop offset="1" style="stop-opacity:1; stop-color:#F50C81"/>
  </linearGradient>
  <linearGradient id="id1" gradientUnits="userSpaceOnUse" xlink:href="#id0" x1="66.588" y1="46.2" x2="67.06" y2="253.8">
  </linearGradient>
  <linearGradient id="id2" gradientUnits="userSpaceOnUse" xlink:href="#id0" x1="46.203" y1="67.491" x2="253.797" y2="66.235">
  </linearGradient>
  <linearGradient id="id3" gradientUnits="userSpaceOnUse" xlink:href="#id0" x1="46.2" y1="150.345" x2="253.8" y2="149.655">
  </linearGradient>
 </defs>
 <g id="Layer_x0020_1">
  <metadata id="CorelCorpID_0Corel-Layer"/>
  <rect class="fil0" width="300" height="300" rx="60.919" ry="60.919"/>
  <g id="_2850451027280">
   <path class="fil1" d="M138.947 66.863l0 0c0,-11.365 9.299,-20.664 20.664,-20.664l73.525 0c11.366,0 20.664,9.299 20.664,20.664l0 0c0,11.365 -9.298,20.664 -20.664,20.664l-73.525 0c-11.365,0 -20.664,-9.299 -20.664,-20.664z"/>
   <path class="fil2" d="M46.199 150l0 0c0,-11.365 9.299,-20.664 20.664,-20.664l141.626 0c11.365,0 20.664,9.299 20.664,20.664l0 0c0,11.365 -9.299,20.664 -20.664,20.664l-141.626 0c-11.365,0 -20.664,-9.299 -20.664,-20.664z"/>
   <rect class="fil3" x="46.199" y="46.199" width="41.328" height="207.602" rx="20.664" ry="20.966"/>
   <path class="fil4" d="M159.611 253.801l0 0c-11.365,0 -20.664,-9.299 -20.664,-20.664l0 -166.274c0,-11.365 9.299,-20.664 20.664,-20.664l0 0c11.365,0 20.664,9.299 20.664,20.664l0 166.274c0,11.365 -9.299,20.664 -20.664,20.664z"/>
  </g>
 </g>
</svg>
