<?xml version="1.0" encoding="UTF-8"?>
<!DOCTYPE svg PUBLIC "-//W3C//DTD SVG 1.1//EN" "http://www.w3.org/Graphics/SVG/1.1/DTD/svg11.dtd">
<!-- Creator: CorelDRAW 2020 (64-Bit) -->
<svg xmlns="http://www.w3.org/2000/svg" xml:space="preserve" width="32px" height="32px" version="1.1" style="shape-rendering:geometricPrecision; text-rendering:geometricPrecision; image-rendering:optimizeQuality; fill-rule:evenodd; clip-rule:evenodd"
viewBox="0 0 32 32"
 xmlns:xlink="http://www.w3.org/1999/xlink"
 xmlns:xodm="http://www.corel.com/coreldraw/odm/2003">
 <defs>
  <style type="text/css">
   <![CDATA[
    .fil3 {fill:url(#id0)}
    .fil2 {fill:url(#id1)}
    .fil0 {fill:url(#id2)}
    .fil1 {fill:url(#id3)}
   ]]>
  </style>
  <linearGradient id="id0" gradientUnits="userSpaceOnUse" x1="17.525" y1="32" x2="17.438" y2="0">
   <stop offset="0" style="stop-opacity:1; stop-color:#840ABE"/>
   <stop offset="1" style="stop-opacity:1; stop-color:#F50C81"/>
  </linearGradient>
  <linearGradient id="id1" gradientUnits="userSpaceOnUse" xlink:href="#id0" x1="3.143" y1="0" x2="3.216" y2="32">
  </linearGradient>
  <linearGradient id="id2" gradientUnits="userSpaceOnUse" xlink:href="#id0" x1="0.001" y1="3.282" x2="31.999" y2="3.088">
  </linearGradient>
  <linearGradient id="id3" gradientUnits="userSpaceOnUse" xlink:href="#id0" x1="0" y1="16.053" x2="32" y2="15.947">
  </linearGradient>
 </defs>
 <g id="Layer_x0020_1">
  <metadata id="CorelCorpID_0Corel-Layer"/>
  <path class="fil0" d="M14.296 3.185l0 0c0,-1.752 1.434,-3.185 3.185,-3.185l11.334 0c1.752,0 3.185,1.433 3.185,3.185l0 0c0,1.752 -1.433,3.185 -3.185,3.185l-11.334 0c-1.751,0 -3.185,-1.433 -3.185,-3.185z"/>
  <path class="fil1" d="M0 16l0 0c0,-1.752 1.433,-3.185 3.185,-3.185l21.831 0c1.751,0 3.185,1.433 3.185,3.185l0 0c0,1.752 -1.434,3.185 -3.185,3.185l-21.831 0c-1.752,0 -3.185,-1.433 -3.185,-3.185z"/>
  <rect class="fil2" width="6.37" height="32" rx="3.185" ry="3.232"/>
  <path class="fil3" d="M17.481 32l0 0c-1.751,0 -3.185,-1.433 -3.185,-3.185l0 -25.63c0,-1.752 1.434,-3.185 3.185,-3.185l0 0c1.752,0 3.186,1.433 3.186,3.185l0 25.63c0,1.752 -1.434,3.185 -3.186,3.185z"/>
 </g>
</svg>
